<svg width="371" height="585" viewBox="0 0 371 585" fill="none" xmlns="http://www.w3.org/2000/svg">
<path d="M549.964 35.5871H550.909C550.909 35.3366 550.809 35.0964 550.632 34.9192C550.455 34.7421 550.215 34.6426 549.964 34.6426V35.5871ZM549.964 549.964V550.908C550.215 550.908 550.455 550.809 550.632 550.632C550.809 550.454 550.909 550.214 550.909 549.964H549.964ZM35.5875 549.964H34.643C34.6422 550.088 34.6661 550.211 34.7133 550.326C34.7605 550.441 34.8301 550.545 34.9179 550.633C35.0058 550.721 35.1102 550.791 35.2251 550.838C35.3401 550.885 35.4632 550.909 35.5875 550.908V549.964ZM35.5875 35.5871V34.6426C35.337 34.6426 35.0967 34.7421 34.9196 34.9192C34.7425 35.0964 34.643 35.3366 34.643 35.5871H35.5875ZM65.7672 65.7668L65.7105 64.8241C65.4804 64.838 65.2632 64.9355 65.1 65.0984C64.9368 65.2612 64.8388 65.4781 64.8245 65.7082L65.7672 65.7668ZM94.6358 94.6354L94.5149 93.6984C94.3078 93.7251 94.1154 93.8197 93.9677 93.9674C93.8201 94.115 93.7255 94.3074 93.6988 94.5145L94.6358 94.6354ZM122.192 122.191L122.003 121.266C121.821 121.303 121.655 121.392 121.524 121.523C121.393 121.654 121.303 121.821 121.266 122.002L122.192 122.191ZM144.499 144.499L144.254 143.587C144.094 143.63 143.948 143.714 143.831 143.831C143.714 143.948 143.63 144.094 143.587 144.254L144.499 144.499ZM169.431 169.431L169.118 168.539C168.984 168.586 168.863 168.663 168.763 168.763C168.663 168.863 168.587 168.984 168.54 169.117L169.431 169.431ZM195.674 195.674L195.285 194.812C195.075 194.907 194.907 195.075 194.813 195.285L195.674 195.674ZM220.606 220.606L220.143 219.782C219.992 219.867 219.867 219.992 219.782 220.143L220.606 220.606ZM241.601 241.601L241.076 240.815C240.972 240.883 240.883 240.972 240.815 241.076L241.601 241.601ZM274.405 269.156L273.794 268.435C273.755 268.468 273.719 268.505 273.685 268.544L274.405 269.156ZM311.147 316.394L311.757 317.116C311.796 317.082 311.833 317.046 311.867 317.006L311.147 316.394ZM519.784 519.784L519.843 520.727C520.072 520.712 520.289 520.614 520.451 520.451C520.614 520.288 520.712 520.072 520.727 519.843L519.784 519.784ZM490.916 490.915L491.037 491.852C491.244 491.826 491.436 491.731 491.584 491.583C491.731 491.436 491.826 491.243 491.853 491.036L490.916 490.915ZM463.36 463.36L463.547 464.285C463.729 464.248 463.896 464.159 464.028 464.027C464.159 463.896 464.249 463.729 464.286 463.547L463.36 463.36ZM441.052 441.052L441.298 441.964C441.457 441.921 441.603 441.837 441.72 441.72C441.837 441.603 441.922 441.457 441.964 441.297L441.052 441.052ZM416.12 416.12L416.434 417.011C416.567 416.965 416.689 416.888 416.789 416.788C416.889 416.688 416.965 416.567 417.012 416.433L416.12 416.12ZM389.877 389.877L390.267 390.738C390.476 390.644 390.644 390.476 390.739 390.266L389.877 389.877ZM364.946 364.945L365.408 365.769C365.559 365.684 365.684 365.559 365.769 365.408L364.946 364.945ZM343.95 343.95L344.476 344.736C344.579 344.667 344.668 344.579 344.736 344.475L343.95 343.95ZM549.02 35.5871V549.964H550.909V35.5871H549.02ZM549.964 549.019H35.5875V550.908H549.964V549.019ZM36.532 549.964V35.5871H34.643V549.964H36.532ZM35.5875 36.5316H549.964V34.6426H35.5875V36.5316ZM36.5301 550.022L66.7098 65.8253L64.8245 65.7082L34.6449 549.905L36.5301 550.022ZM65.8257 66.7094L550.023 36.5316L549.906 34.6464L65.7105 64.8241L65.8257 66.7094ZM36.5245 550.085L95.5728 94.7563L93.6988 94.5145L34.6505 549.843L36.5245 550.085ZM94.7567 95.5724L550.085 36.5241L549.843 34.6501L94.5149 93.6984L94.7567 95.5724ZM36.5131 550.149L123.117 122.378L121.266 122.002L34.6619 549.777L36.5131 550.149ZM122.379 123.117L550.151 36.5128L549.777 34.6615L122.003 121.266L122.379 123.117ZM36.4999 550.209L145.41 144.743L143.587 144.254L34.6751 549.718L36.4999 550.209ZM144.743 145.41L550.21 36.4995L549.719 34.6747L144.254 143.587L144.743 145.41ZM36.4791 550.279L170.321 169.746L168.54 169.117L34.6959 549.652L36.4791 550.279ZM169.743 170.321L550.278 36.4787L549.65 34.6955L169.118 168.539L169.743 170.321ZM36.4489 550.353L196.534 196.063L194.813 195.285L34.7261 549.575L36.4489 550.353ZM196.063 196.535L550.353 36.4485L549.575 34.7257L195.285 194.812L196.063 196.535ZM36.4111 550.427L221.43 221.068L219.782 220.143L34.7639 549.501L36.4111 550.427ZM221.069 221.429L550.427 36.4107L549.501 34.7635L220.143 219.782L221.069 221.429ZM36.3733 550.489L242.383 242.124L240.815 241.076L34.8016 549.439L36.3733 550.489ZM242.124 242.385L550.489 36.373L549.439 34.8013L241.076 240.815L242.124 242.385ZM36.3072 550.576L275.124 269.769L273.685 268.544L34.8696 549.352L36.3072 550.576ZM275.017 269.876L550.574 36.3068L549.354 34.8674L273.794 268.435L275.017 269.876ZM549.244 34.9751L310.427 315.782L311.867 317.006L550.684 36.1973L549.244 34.9751ZM310.535 315.675L34.9773 549.242L36.1977 550.683L311.757 317.116L310.535 315.675ZM549.021 35.5267L518.842 519.725L520.727 519.843L550.907 35.6457L549.021 35.5267ZM519.726 518.841L35.5289 549.021L35.6461 550.906L519.843 520.727L519.726 518.841ZM549.027 35.4662L489.979 490.794L491.853 491.036L550.901 35.708L549.027 35.4662ZM490.795 489.978L35.4666 549.027L35.7084 550.901L491.037 491.852L490.795 489.978ZM549.038 35.4001L462.434 463.173L464.286 463.547L550.89 35.7741L549.038 35.4001ZM463.173 462.434L35.4005 549.038L35.7745 550.889L463.547 464.285L463.173 462.434ZM549.052 35.3415L440.14 440.81L441.964 441.297L550.876 35.8327L549.052 35.3415ZM440.808 440.139L35.3419 549.051L35.8331 550.876L441.298 441.964L440.808 440.139ZM549.072 35.2754L415.23 415.808L417.012 416.433L550.856 35.9007L549.072 35.2754ZM415.809 415.23L35.2758 549.072L35.8992 550.855L416.434 417.011L415.809 415.23ZM549.103 35.198L389.016 389.488L390.739 390.266L550.825 35.9763L549.103 35.198ZM389.488 389.016L35.1983 549.102L35.9766 550.825L390.267 390.738L389.488 389.016ZM549.14 35.1243L364.122 364.482L365.769 365.408L550.788 36.0499L549.14 35.1243ZM364.483 364.121L35.1247 549.14L36.0503 550.787L365.408 365.769L364.483 364.121ZM549.178 35.0619L343.165 343.425L344.736 344.475L550.75 36.1123L549.178 35.0619ZM343.425 343.164L35.0623 549.178L36.1127 550.75L344.476 344.736L343.425 343.164Z" fill="white" fill-opacity="0.5"/>
</svg>
