<svg width="16" height="16" viewBox="0 0 16 16" fill="none" xmlns="http://www.w3.org/2000/svg">
<path d="M2.85714 9.14285L0.822856 12.0571C0.731094 12.2358 0.688061 12.4356 0.698093 12.6362C0.708125 12.8369 0.770868 13.0313 0.879999 13.2C0.982937 13.3647 1.12615 13.5004 1.29612 13.5944C1.46609 13.6884 1.65721 13.7375 1.85143 13.7371H14.1486C14.3428 13.7375 14.5339 13.6884 14.7039 13.5944C14.8738 13.5004 15.0171 13.3647 15.12 13.2C15.2203 13.0263 15.2731 12.8292 15.2731 12.6286C15.2731 12.428 15.2203 12.2309 15.12 12.0571L13.1429 9.14285M2.85714 9.14285V3.42856C2.85714 3.12546 2.97755 2.83477 3.19188 2.62044C3.4062 2.40611 3.69689 2.28571 4 2.28571H12C12.3031 2.28571 12.5938 2.40611 12.8081 2.62044C13.0224 2.83477 13.1429 3.12546 13.1429 3.42856V9.14285M2.85714 9.14285H13.1429" stroke="#0D121C" stroke-linecap="round" stroke-linejoin="round"/>
</svg>
