<svg width="16" height="16" viewBox="0 0 16 16" fill="none" xmlns="http://www.w3.org/2000/svg">
<path d="M12.9829 6.66286H10.1371C10.0596 6.66284 9.98289 6.67829 9.91142 6.70829C9.83995 6.73829 9.77518 6.78225 9.7209 6.83759C9.66663 6.89293 9.62394 6.95854 9.59533 7.03058C9.56672 7.10262 9.55276 7.17964 9.55428 7.25714V8.86857C9.55428 9.02315 9.61569 9.17141 9.725 9.28071C9.8343 9.39002 9.98256 9.45143 10.1371 9.45143H11.6114C11.6197 9.89316 11.5347 10.3317 11.3621 10.7384C11.1894 11.145 10.933 11.5108 10.6094 11.8116C10.2859 12.1125 9.90259 12.3418 9.48447 12.4845C9.06635 12.6273 8.62283 12.6802 8.18285 12.64C5.62285 12.64 4.38857 10.4686 4.38857 8C4.38857 5.53143 5.71428 3.36 8.18285 3.36C9.27268 3.32384 10.3406 3.67171 11.2 4.34286C11.2687 4.38781 11.3464 4.41712 11.4277 4.42869C11.509 4.44027 11.5918 4.43384 11.6703 4.40985C11.7488 4.38586 11.8211 4.3449 11.882 4.28987C11.9429 4.23485 11.991 4.1671 12.0229 4.09143L12.7429 2.44571C12.8021 2.32441 12.8174 2.18632 12.7861 2.05501C12.7548 1.9237 12.679 1.80731 12.5714 1.72571C11.2609 0.942052 9.7551 0.545794 8.22857 0.582856C4.06857 0.571427 1.23428 3.80571 1.23428 8C1.23428 12.1943 4.08 15.4286 8.18285 15.4286C12.2857 15.4286 14.7657 12.5029 14.7657 8.57143C14.7657 7.31428 14.2629 6.66286 12.9829 6.66286Z" stroke="#0D121C" stroke-linecap="round" stroke-linejoin="round"/>
</svg>
