<svg width="16" height="16" viewBox="0 0 16 16" fill="none" xmlns="http://www.w3.org/2000/svg">
<g clip-path="url(#clip0_1_3206)">
<path d="M14.7933 1.20666C14.5662 0.980527 14.2966 0.801635 14 0.680313C13.7033 0.55899 13.3856 0.497642 13.0651 0.499811C12.7447 0.501981 12.4278 0.567625 12.1328 0.692953C11.8379 0.81828 11.5707 1.00081 11.3467 1.22999L1.68 10.8967L0.5 15.5L5.10333 14.3193L14.77 4.65266C14.9992 4.42875 15.1818 4.16161 15.3072 3.86671C15.4326 3.5718 15.4982 3.25497 15.5004 2.93452C15.5026 2.61408 15.4412 2.29639 15.3198 1.99981C15.1985 1.70323 15.0195 1.43365 14.7933 1.20666Z" stroke="#0D121C" stroke-linecap="round" stroke-linejoin="round"/>
<path d="M11.0707 1.50665L14.4933 4.92932" stroke="#0D121C" stroke-linecap="round" stroke-linejoin="round"/>
<path d="M1.68066 10.896L5.10666 14.316" stroke="#0D121C" stroke-linecap="round" stroke-linejoin="round"/>
</g>
<defs>
<clipPath id="clip0_1_3206">
<rect width="16" height="16" fill="white"/>
</clipPath>
</defs>
</svg>
