<svg width="16" height="16" viewBox="0 0 16 16" fill="none" xmlns="http://www.w3.org/2000/svg">
<path fill-rule="evenodd" clip-rule="evenodd" d="M0.844222 2.68787C0.723582 2.72431 0.583006 2.85912 0.534494 2.98493C0.504734 3.0621 0.503998 3.18655 0.503998 8.17599V13.288L0.540926 13.3696C0.584222 13.4652 0.68267 13.5661 0.783998 13.6186L0.855998 13.656H8H15.144L15.216 13.6186C15.3173 13.5661 15.4158 13.4652 15.4591 13.3696L15.496 13.288V8.17599C15.496 3.18655 15.4953 3.0621 15.4655 2.98493C15.4289 2.88997 15.3326 2.78144 15.2329 2.72285L15.16 2.67999L8.024 2.67733C4.0992 2.67586 0.868302 2.68061 0.844222 2.68787ZM2.26445 3.69439C2.31091 3.73917 6.95224 7.30634 7.05829 7.37879C7.1911 7.46951 7.40429 7.56455 7.5807 7.61167C7.71806 7.64835 7.76649 7.65315 8 7.65315C8.2335 7.65315 8.28193 7.64835 8.41929 7.61167C8.59571 7.56455 8.80889 7.46951 8.94171 7.37879C9.04776 7.30634 13.6891 3.73917 13.7355 3.69439C13.7666 3.66451 13.6667 3.66399 8 3.66399C2.33325 3.66399 2.23344 3.66451 2.26445 3.69439ZM1.504 8.52603V12.672H8H14.496V8.52603C14.496 5.21138 14.492 4.38328 14.476 4.3961C14.2146 4.60567 9.55027 8.18048 9.46216 8.23877C8.79781 8.67826 7.91392 8.7872 7.128 8.5265C6.94606 8.46613 6.70077 8.34655 6.53784 8.23877C6.44973 8.18048 1.78537 4.60567 1.524 4.3961C1.50801 4.38328 1.504 5.21138 1.504 8.52603Z" fill="#0D121C"/>
</svg>
