<svg width="16" height="16" viewBox="0 0 16 16" fill="none" xmlns="http://www.w3.org/2000/svg">
<path d="M2.85714 15.3371C4.11951 15.3371 5.14286 14.3138 5.14286 13.0514C5.14286 11.789 4.11951 10.7657 2.85714 10.7657C1.59478 10.7657 0.571426 11.789 0.571426 13.0514C0.571426 14.3138 1.59478 15.3371 2.85714 15.3371Z" stroke="#0D121C" stroke-linecap="round" stroke-linejoin="round"/>
<path d="M13.1429 12.48C14.4052 12.48 15.4286 11.4566 15.4286 10.1943C15.4286 8.93192 14.4052 7.90857 13.1429 7.90857C11.8805 7.90857 10.8571 8.93192 10.8571 10.1943C10.8571 11.4566 11.8805 12.48 13.1429 12.48Z" stroke="#0D121C" stroke-linecap="round" stroke-linejoin="round"/>
<path d="M15.4286 10.1943V1.23427C15.4281 1.14683 15.4075 1.06067 15.3685 0.982428C15.3295 0.904181 15.273 0.835934 15.2035 0.782942C15.1339 0.72995 15.0531 0.693626 14.9673 0.676768C14.8815 0.659909 14.793 0.662965 14.7086 0.685701L5.56571 3.22284C5.44489 3.25537 5.33808 3.32666 5.2617 3.42576C5.18531 3.52486 5.14356 3.64629 5.14285 3.77141V13.0514M5.14285 6.7657L15.4286 3.90856" stroke="#0D121C" stroke-linecap="round" stroke-linejoin="round"/>
</svg>
