<svg width="16" height="16" viewBox="0 0 16 16" fill="none" xmlns="http://www.w3.org/2000/svg">
<g clip-path="url(#clip0_1_3208)">
<path d="M2.502 9.29599V14.796H6.502V10.796C6.502 10.5308 6.60736 10.2764 6.79489 10.0889C6.98243 9.90135 7.23678 9.79599 7.502 9.79599H8.502C8.76722 9.79599 9.02157 9.90135 9.20911 10.0889C9.39664 10.2764 9.502 10.5308 9.502 10.796V14.796H13.502V9.29599" stroke="#0D121C" stroke-linecap="round" stroke-linejoin="round"/>
<path d="M0.501999 8.29601L7.29467 1.50334C7.38753 1.41041 7.4978 1.3367 7.61917 1.2864C7.74053 1.23611 7.87062 1.21022 8.002 1.21022C8.13337 1.21022 8.26346 1.23611 8.38483 1.2864C8.5062 1.3367 8.61647 1.41041 8.70933 1.50334L15.502 8.29601" stroke="#0D121C" stroke-linecap="round" stroke-linejoin="round"/>
</g>
<defs>
<clipPath id="clip0_1_3208">
<rect width="16" height="16" fill="white"/>
</clipPath>
</defs>
</svg>
