<svg width="16" height="16" viewBox="0 0 16 16" fill="none" xmlns="http://www.w3.org/2000/svg">
<path d="M6.28571 14.0914C6.3845 14.4709 6.6064 14.8068 6.91663 15.0467C7.22686 15.2865 7.60789 15.4166 8 15.4166C8.39211 15.4166 8.77313 15.2865 9.08336 15.0467C9.3936 14.8068 9.61549 14.4709 9.71428 14.0914M8 0.571426C9.30032 0.571426 10.5474 1.08798 11.4668 2.00744C12.3863 2.9269 12.9029 4.17396 12.9029 5.47428C12.9029 10.9257 14.8914 12 15.4286 12H0.571426C1.12 12 3.09714 10.9143 3.09714 5.47428C3.09714 4.17396 3.61369 2.9269 4.53315 2.00744C5.45262 1.08798 6.69968 0.571426 8 0.571426Z" stroke="#0D121C" stroke-linecap="round" stroke-linejoin="round"/>
</svg>
