<svg width="16" height="16" viewBox="0 0 16 16" fill="none" xmlns="http://www.w3.org/2000/svg">
<g clip-path="url(#clip0_1_3203)">
<path d="M6.24133 13.752C6.24133 14.2161 6.42571 14.6613 6.7539 14.9895C7.08208 15.3176 7.5272 15.502 7.99133 15.502C8.45546 15.502 8.90058 15.3176 9.22877 14.9895C9.55696 14.6613 9.74133 14.2161 9.74133 13.752C9.74133 13.2879 9.55696 12.8428 9.22877 12.5146C8.90058 12.1864 8.45546 12.002 7.99133 12.002C7.5272 12.002 7.08208 12.1864 6.7539 12.5146C6.42571 12.8428 6.24133 13.2879 6.24133 13.752Z" stroke="#0D121C" stroke-linecap="round" stroke-linejoin="round"/>
<path d="M6.24133 2.25201C6.24133 2.71614 6.42571 3.16126 6.7539 3.48945C7.08208 3.81764 7.5272 4.00201 7.99133 4.00201C8.45546 4.00201 8.90058 3.81764 9.22877 3.48945C9.55696 3.16126 9.74133 2.71614 9.74133 2.25201C9.74133 1.78789 9.55696 1.34277 9.22877 1.01458C8.90058 0.686389 8.45546 0.502014 7.99133 0.502014C7.5272 0.502014 7.08208 0.686389 6.7539 1.01458C6.42571 1.34277 6.24133 1.78789 6.24133 2.25201Z" stroke="#0D121C" stroke-linecap="round" stroke-linejoin="round"/>
<path d="M6.24133 8.00201C6.24133 8.46614 6.42571 8.91126 6.7539 9.23945C7.08208 9.56764 7.5272 9.75201 7.99133 9.75201C8.45546 9.75201 8.90058 9.56764 9.22877 9.23945C9.55696 8.91126 9.74133 8.46614 9.74133 8.00201C9.74133 7.53789 9.55696 7.09277 9.22877 6.76458C8.90058 6.43639 8.45546 6.25201 7.99133 6.25201C7.5272 6.25201 7.08208 6.43639 6.7539 6.76458C6.42571 7.09277 6.24133 7.53789 6.24133 8.00201Z" stroke="#0D121C" stroke-linecap="round" stroke-linejoin="round"/>
</g>
<defs>
<clipPath id="clip0_1_3203">
<rect width="16" height="16" fill="white"/>
</clipPath>
</defs>
</svg>
