<svg width="16" height="16" viewBox="0 0 16 16" fill="none" xmlns="http://www.w3.org/2000/svg">
<g clip-path="url(#clip0_601_3756)">
<path fill-rule="evenodd" clip-rule="evenodd" d="M6.9088 0.00428293C6.41264 0.0490701 5.95259 0.223272 5.5584 0.515624C5.32249 0.69058 5.10773 0.916085 4.94274 1.16207C4.69665 1.52897 4.54617 1.9537 4.5059 2.39502C4.49636 2.49954 4.4963 7.4963 4.50584 7.6018C4.55512 8.14716 4.76302 8.64541 5.11929 9.07201C5.23254 9.20762 5.42846 9.39007 5.5776 9.49884C5.91794 9.74704 6.31923 9.9121 6.73425 9.97461C6.91979 10.0025 6.94911 10.0032 8 10.0032C9.05089 10.0032 9.0802 10.0025 9.26575 9.97461C10.4635 9.79421 11.3847 8.8134 11.4942 7.60189C11.5035 7.49855 11.5036 2.50676 11.4943 2.40134C11.4716 2.14447 11.4164 1.91069 11.3197 1.66081C11.2766 1.54931 11.1644 1.3286 11.0975 1.22367C10.8383 0.817102 10.4883 0.498197 10.0636 0.281742C9.80087 0.147829 9.53812 0.0655629 9.21969 0.0174989C9.13071 0.00406534 9.11604 0.00388613 8.032 0.00293893C7.42832 0.00240773 6.92288 0.00301573 6.9088 0.00428293ZM6.9824 1.00288C6.91879 1.00823 6.78896 1.03195 6.70976 1.05272C6.4402 1.12337 6.19887 1.26039 5.9944 1.45886C5.77874 1.6682 5.62311 1.93552 5.54895 2.22401C5.50461 2.39653 5.49556 2.50183 5.50127 2.77921L5.50584 3.00161H6.28605C7.1511 3.00161 7.10914 2.99969 7.20537 3.04379C7.33695 3.10408 7.43924 3.22013 7.48063 3.35606C7.49412 3.40037 7.49649 3.4212 7.49677 3.49761C7.49714 3.59893 7.48865 3.64072 7.45256 3.71521C7.39201 3.84017 7.27792 3.93884 7.14568 3.98062L7.0944 3.99681L6.2992 3.99856L5.504 4.0003V4.49919V4.99808L6.296 4.99995L7.088 5.00182L7.13485 5.01626C7.30581 5.06897 7.42897 5.19189 7.48251 5.36321C7.5037 5.43105 7.50391 5.56067 7.48293 5.63399C7.42632 5.83184 7.25928 5.97322 7.05435 5.9967C7.02012 6.00062 6.70836 6.00313 6.2512 6.00316L5.504 6.00321L5.5024 6.62881C5.50015 7.50699 5.5002 7.51089 5.5133 7.60001C5.61248 8.27459 6.1143 8.81723 6.77395 8.96321C6.93584 8.99903 6.91434 8.99841 8 8.99841C9.08637 8.99841 9.06496 8.99903 9.22605 8.96305C9.64979 8.86839 10.0145 8.61164 10.2505 8.24174C10.3387 8.10358 10.4129 7.92874 10.4536 7.76321C10.5007 7.57204 10.4983 7.62108 10.5008 6.76961L10.5029 6.00321L9.75227 6.00316C9.29279 6.00313 8.97989 6.00062 8.94564 5.9967C8.82334 5.98268 8.73385 5.93883 8.6464 5.85006C8.56573 5.76817 8.52565 5.69254 8.50728 5.58752C8.49643 5.52551 8.49961 5.42542 8.5141 5.37281C8.56068 5.20382 8.69292 5.06923 8.86417 5.01653L8.912 5.00182L9.7072 4.99995L10.5024 4.99808V4.49919V4.0003L9.704 3.99848L8.9056 3.99666L8.8576 3.98195C8.69433 3.93191 8.55941 3.79311 8.51432 3.62881C8.50578 3.59771 8.50298 3.56461 8.50322 3.49761C8.50351 3.4212 8.50588 3.40037 8.51937 3.35606C8.56005 3.22245 8.66169 3.1057 8.78936 3.04596C8.88266 3.0023 8.81711 3.00548 9.6992 3.00177L10.4992 2.99841V2.74561C10.4992 2.57158 10.4965 2.47287 10.4907 2.42881C10.4497 2.12057 10.3226 1.8263 10.1292 1.59183C9.87541 1.28423 9.53757 1.09034 9.1264 1.01636L9.0464 1.00197L8.0288 1.00121C7.46912 1.0008 6.99824 1.00155 6.9824 1.00288ZM2.91684 5.00492C2.72423 5.03543 2.55176 5.19862 2.51152 5.38841C2.49775 5.45338 2.49832 7.64713 2.51215 7.83041C2.58612 8.81013 2.95881 9.70582 3.60266 10.4512C3.70578 10.5706 3.93234 10.7971 4.0512 10.8997C4.6758 11.4385 5.41719 11.7918 6.2176 11.932C6.51767 11.9845 6.64653 11.994 7.1152 11.9981L7.5008 12.0014V13.5014V15.0013L6.6992 15.0031L5.8976 15.0048L5.84853 15.0216C5.68353 15.0779 5.56221 15.2053 5.5157 15.371C5.49638 15.4398 5.49647 15.5588 5.5159 15.6311C5.5653 15.8148 5.7284 15.9631 5.91401 15.9932C5.97151 16.0026 10.0285 16.0026 10.086 15.9932C10.2716 15.9631 10.4347 15.8148 10.4841 15.6311C10.502 15.5647 10.5033 15.4404 10.4869 15.3792C10.4407 15.2075 10.3168 15.0763 10.1472 15.0198L10.1024 15.0048L9.3024 15.0016L8.5024 14.9984L8.50079 13.4999L8.49917 12.0014L8.88479 11.9981C9.35359 11.994 9.48271 11.9845 9.7824 11.9319C10.506 11.8051 11.1843 11.5031 11.7696 11.0472C12.0414 10.8355 12.333 10.5438 12.548 10.2685C13.0479 9.62847 13.365 8.86534 13.4654 8.06081C13.5001 7.78312 13.5003 7.77621 13.5005 6.56961C13.5007 5.66801 13.4992 5.44088 13.4924 5.40481C13.4576 5.22043 13.311 5.0642 13.1253 5.01359C13.062 4.99633 12.933 4.99779 12.8676 5.01651C12.7214 5.05832 12.596 5.16826 12.5378 5.30561C12.5005 5.39365 12.5033 5.3033 12.4989 6.56641C12.4948 7.745 12.4947 7.75266 12.4701 7.94561C12.3899 8.57348 12.1409 9.16771 11.7511 9.66081C11.3197 10.2067 10.7478 10.6084 10.0992 10.8212C9.81263 10.9152 9.57478 10.963 9.2576 10.9902C9.11889 11.0021 6.88141 11.0021 6.7424 10.9902C6.49494 10.969 6.26445 10.929 6.0672 10.8729C5.46846 10.7026 4.96254 10.4073 4.52982 9.97566C4.09762 9.54452 3.80023 9.03766 3.62909 8.44051C3.57581 8.2546 3.5415 8.06535 3.51267 7.79841C3.50724 7.74816 3.50399 7.39559 3.50128 6.56641L3.4975 5.40481L3.48246 5.36001C3.42439 5.18702 3.29956 5.06401 3.13485 5.01747C3.081 5.00225 2.97295 4.99603 2.91684 5.00492Z" fill="#0D121C"/>
</g>
<defs>
<clipPath id="clip0_601_3756">
<rect width="16" height="16" fill="white"/>
</clipPath>
</defs>
</svg>
