<svg width="21" height="20" viewBox="0 0 21 20" fill="none" xmlns="http://www.w3.org/2000/svg">
<path d="M1.90625 16.3945L1.90625 3.60549C1.90624 3.50109 1.93476 3.39867 1.98873 3.3093C2.0427 3.21993 2.12007 3.147 2.21247 3.09841C2.30487 3.04981 2.4088 3.02738 2.51302 3.03355C2.61724 3.03972 2.71779 3.07425 2.80382 3.13341L12.1042 9.52792C12.1809 9.58046 12.2437 9.65091 12.287 9.73317C12.3304 9.81543 12.3531 9.90702 12.3531 10C12.3531 10.093 12.3304 10.1846 12.287 10.2668C12.2437 10.3491 12.1809 10.4196 12.1042 10.4721L2.80382 16.8666C2.71779 16.9258 2.61724 16.9603 2.51302 16.9665C2.4088 16.9726 2.30487 16.9502 2.21247 16.9016C2.12007 16.853 2.04271 16.7801 1.98874 16.6907C1.93477 16.6013 1.90624 16.4989 1.90625 16.3945Z" stroke="#0D121C" stroke-linecap="round" stroke-linejoin="round"/>
<path d="M17.9479 17.4479L16.8021 17.4479C16.8021 17.4479 15.6563 17.4479 15.6562 16.3021L15.6562 3.69792C15.6562 3.69792 15.6562 2.55209 16.8021 2.55209L17.9479 2.55209C17.9479 2.55209 19.0937 2.55209 19.0937 3.69792L19.0937 16.3021C19.0937 16.3021 19.0938 17.4479 17.9479 17.4479Z" stroke="#0D121C" stroke-linecap="round" stroke-linejoin="round"/>
</svg>
