<svg width="33" height="32" viewBox="0 0 33 32" fill="none" xmlns="http://www.w3.org/2000/svg">
<path d="M2.75 15.9976C2.75 19.6443 4.19866 23.1417 6.77728 25.7203C9.35591 28.2989 12.8533 29.7476 16.5 29.7476C20.1467 29.7476 23.6441 28.2989 26.2227 25.7203C28.8013 23.1417 30.25 19.6443 30.25 15.9976C30.25 12.3508 28.8013 8.85347 26.2227 6.27484C23.6441 3.69621 20.1467 2.24756 16.5 2.24756C12.8533 2.24756 9.35591 3.69621 6.77728 6.27484C4.19866 8.85347 2.75 12.3508 2.75 15.9976Z" stroke="#0D121C" stroke-linecap="round" stroke-linejoin="round"/>
<path d="M12.8333 20.4159C12.8337 20.7997 12.9444 21.1753 13.1525 21.4979C13.3605 21.8205 13.6569 22.0763 14.0064 22.235C14.3559 22.3936 14.7437 22.4483 15.1235 22.3926C15.5032 22.3368 15.8589 22.1729 16.148 21.9204L22.9167 16L16.148 10.0759C15.8591 9.82291 15.5033 9.65856 15.1234 9.60249C14.7435 9.54643 14.3554 9.60103 14.0057 9.75977C13.656 9.9185 13.3594 10.1746 13.1515 10.4975C12.9436 10.8204 12.8331 11.1964 12.8333 11.5804V20.4159Z" stroke="#0D121C" stroke-linecap="round" stroke-linejoin="round"/>
</svg>
