<svg width="21" height="20" viewBox="0 0 21 20" fill="none" xmlns="http://www.w3.org/2000/svg">
<path d="M19.0937 3.60548V16.3945C19.0938 16.4989 19.0652 16.6013 19.0113 16.6907C18.9573 16.7801 18.8799 16.853 18.7875 16.9016C18.6951 16.9502 18.5912 16.9726 18.487 16.9665C18.3828 16.9603 18.2822 16.9258 18.1962 16.8666L8.89583 10.4721C8.81911 10.4195 8.75634 10.3491 8.71297 10.2668C8.6696 10.1846 8.64694 10.093 8.64694 9.99999C8.64694 9.907 8.6696 9.81541 8.71297 9.73316C8.75634 9.6509 8.81911 9.58045 8.89583 9.52791L18.1962 3.1334C18.2822 3.07423 18.3828 3.0397 18.487 3.03353C18.5912 3.02736 18.6951 3.04979 18.7875 3.09839C18.8799 3.14699 18.9573 3.21991 19.0113 3.30928C19.0652 3.39866 19.0938 3.50108 19.0937 3.60548Z" stroke="#0D121C" stroke-linecap="round" stroke-linejoin="round"/>
<path d="M3.05208 2.55208H4.19792C4.19792 2.55208 5.34375 2.55208 5.34375 3.69791V16.3021C5.34375 16.3021 5.34375 17.4479 4.19792 17.4479H3.05208C3.05208 17.4479 1.90625 17.4479 1.90625 16.3021V3.69791C1.90625 3.69791 1.90625 2.55208 3.05208 2.55208Z" stroke="#0D121C" stroke-linecap="round" stroke-linejoin="round"/>
</svg>
