<svg width="21" height="20" viewBox="0 0 21 20" fill="none" xmlns="http://www.w3.org/2000/svg">
<path d="M11.0729 12.863V7.70833C11.0726 7.60205 11.0428 7.49793 10.9868 7.4076C10.9308 7.31727 10.8509 7.24426 10.7558 7.19673C10.6607 7.1492 10.5543 7.12902 10.4485 7.13842C10.3426 7.14782 10.2414 7.18645 10.1562 7.24999L8.78125 8.28124" stroke="#0D121C" stroke-linecap="round" stroke-linejoin="round"/>
<path d="M9.92708 12.8631H12.2187" stroke="#0D121C" stroke-linecap="round" stroke-linejoin="round"/>
<path d="M1.90625 4.84222H15.6562C15.9601 4.84222 16.2516 4.96295 16.4665 5.17783C16.6814 5.39272 16.8021 5.68416 16.8021 5.98806V10.5714" stroke="#0D121C" stroke-linecap="round" stroke-linejoin="round"/>
<path d="M19.0938 15.1547H5.34376C5.03986 15.1547 4.74841 15.034 4.53353 14.8191C4.31864 14.6042 4.19792 14.3128 4.19792 14.0089V9.42555" stroke="#0D121C" stroke-linecap="round" stroke-linejoin="round"/>
<path d="M4.19792 2.55055L1.90625 4.84222L4.19792 7.13389" stroke="#0D121C" stroke-linecap="round" stroke-linejoin="round"/>
<path d="M16.8021 17.4464L19.0937 15.1547L16.8021 12.8631" stroke="#0D121C" stroke-linecap="round" stroke-linejoin="round"/>
</svg>
