<svg width="16" height="16" viewBox="0 0 16 16" fill="none" xmlns="http://www.w3.org/2000/svg">
<g clip-path="url(#clip0_1_3193)">
<path d="M0.981333 8.90468C1.60813 10.3795 2.79511 11.5448 4.28114 12.1445C5.76718 12.7441 7.43055 12.7288 8.90533 12.102C10.3801 11.4752 11.5455 10.2882 12.1451 8.8022C12.7447 7.31617 12.7295 5.65279 12.1027 4.17801C11.7923 3.44778 11.3412 2.78582 10.775 2.22994C10.2088 1.67405 9.53867 1.23513 8.80286 0.938233C8.06704 0.641333 7.27996 0.49227 6.48654 0.499553C5.69312 0.506836 4.9089 0.670323 4.17867 0.980681C3.44843 1.29104 2.78647 1.74219 2.23059 2.30837C1.67471 2.87455 1.23579 3.54468 0.938886 4.28049C0.641986 5.0163 0.492922 5.80339 0.500205 6.59681C0.507488 7.39023 0.670976 8.17444 0.981333 8.90468Z" stroke="#0D121C" stroke-linecap="round" stroke-linejoin="round"/>
<path d="M10.814 10.8133L15.5 15.5" stroke="#0D121C" stroke-linecap="round" stroke-linejoin="round"/>
</g>
<defs>
<clipPath id="clip0_1_3193">
<rect width="16" height="16" fill="white"/>
</clipPath>
</defs>
</svg>
