<svg width="16" height="16" viewBox="0 0 16 16" fill="none" xmlns="http://www.w3.org/2000/svg">
<g clip-path="url(#clip0_1_3175)">
<path d="M7.03067 1.62533C7.153 1.76113 7.30251 1.8697 7.4695 1.94403C7.63648 2.01835 7.81722 2.05675 8 2.05675C8.18278 2.05675 8.36352 2.01835 8.5305 1.94403C8.69749 1.8697 8.847 1.76113 8.96933 1.62533L9.6 0.933326C9.78075 0.733287 10.019 0.594087 10.282 0.534833C10.545 0.475579 10.8199 0.499174 11.069 0.60238C11.318 0.705585 11.5291 0.883344 11.6731 1.11126C11.8171 1.33917 11.887 1.60607 11.8733 1.87533L11.826 2.80866C11.8168 2.99073 11.8459 3.1727 11.9114 3.34285C11.9768 3.513 12.0772 3.66755 12.206 3.79655C12.3348 3.92555 12.4892 4.02614 12.6593 4.09183C12.8293 4.15753 13.0112 4.18688 13.1933 4.17799L14.1267 4.13066C14.3957 4.11739 14.6623 4.18767 14.8899 4.33185C15.1175 4.47604 15.2949 4.68707 15.3979 4.93604C15.5008 5.185 15.5242 5.45971 15.465 5.72251C15.4057 5.98532 15.2665 6.22335 15.0667 6.40399L14.372 7.03066C14.2364 7.15317 14.1279 7.30277 14.0537 7.4698C13.9795 7.63682 13.9412 7.81756 13.9412 8.00033C13.9412 8.1831 13.9795 8.36383 14.0537 8.53086C14.1279 8.69788 14.2364 8.84748 14.372 8.96999L15.0667 9.59666C15.2667 9.77741 15.4059 10.0156 15.4652 10.2786C15.5244 10.5417 15.5008 10.8166 15.3976 11.0656C15.2944 11.3147 15.1166 11.5257 14.8887 11.6697C14.6608 11.8138 14.3939 11.8837 14.1247 11.87L13.1913 11.8227C13.0089 11.8133 12.8264 11.8423 12.6559 11.9079C12.4853 11.9734 12.3305 12.0741 12.2013 12.2033C12.0721 12.3325 11.9714 12.4873 11.9059 12.6579C11.8403 12.8284 11.8113 13.0109 11.8207 13.1933L11.868 14.1267C11.8799 14.3946 11.8091 14.6596 11.6651 14.8859C11.5212 15.1121 11.3111 15.2886 11.0633 15.3913C10.8156 15.4939 10.5423 15.5179 10.2805 15.4598C10.0187 15.4017 9.78108 15.2645 9.6 15.0667L8.97267 14.3727C8.85022 14.237 8.70067 14.1286 8.5337 14.0544C8.36673 13.9802 8.18605 13.9419 8.00333 13.9419C7.82062 13.9419 7.63993 13.9802 7.47296 14.0544C7.30599 14.1286 7.15645 14.237 7.034 14.3727L6.404 15.0667C6.22321 15.2654 5.98553 15.4035 5.72336 15.4622C5.4612 15.5209 5.18731 15.4974 4.93903 15.3947C4.69075 15.2921 4.48016 15.1154 4.33598 14.8887C4.1918 14.662 4.12103 14.3964 4.13333 14.128L4.18133 13.1947C4.19072 13.0122 4.16169 12.8298 4.09613 12.6592C4.03057 12.4887 3.92993 12.3338 3.80073 12.2046C3.67153 12.0754 3.51665 11.9748 3.3461 11.9092C3.17555 11.8436 2.99314 11.8146 2.81067 11.824L1.87733 11.8713C1.60819 11.8854 1.34129 11.8158 1.11329 11.6721C0.885289 11.5284 0.707356 11.3176 0.603921 11.0687C0.500486 10.8199 0.476621 10.5451 0.535602 10.2821C0.594583 10.0191 0.733518 9.78085 0.933333 9.59999L1.62733 8.97333C1.76296 8.85082 1.87139 8.70122 1.94559 8.53419C2.0198 8.36716 2.05814 8.18643 2.05814 8.00366C2.05814 7.82089 2.0198 7.64016 1.94559 7.47313C1.87139 7.3061 1.76296 7.1565 1.62733 7.03399L0.933333 6.40399C0.734166 6.22333 0.595655 5.98556 0.536733 5.72319C0.477812 5.46083 0.501356 5.18667 0.604147 4.93819C0.706938 4.68971 0.88396 4.47904 1.11101 4.33498C1.33807 4.19091 1.60407 4.12049 1.87267 4.13333L2.806 4.18066C2.98882 4.19027 3.17162 4.16132 3.34252 4.09569C3.51342 4.03005 3.6686 3.9292 3.79799 3.79969C3.92738 3.67017 4.02808 3.51489 4.09355 3.34393C4.15901 3.17296 4.18779 2.99014 4.178 2.80733L4.13333 1.87333C4.12074 1.60484 4.19129 1.339 4.33536 1.11209C4.47944 0.885176 4.69001 0.708244 4.93836 0.605435C5.1867 0.502625 5.46072 0.478946 5.72303 0.537628C5.98533 0.59631 6.22314 0.734494 6.404 0.933326L7.03067 1.62533Z" stroke="#0D121C" stroke-linecap="round" stroke-linejoin="round"/>
<path d="M5 8.00067C5 8.79632 5.31607 9.55938 5.87868 10.122C6.44129 10.6846 7.20435 11.0007 8 11.0007C8.79565 11.0007 9.55871 10.6846 10.1213 10.122C10.6839 9.55938 11 8.79632 11 8.00067C11 7.20502 10.6839 6.44196 10.1213 5.87935C9.55871 5.31674 8.79565 5.00067 8 5.00067C7.20435 5.00067 6.44129 5.31674 5.87868 5.87935C5.31607 6.44196 5 7.20502 5 8.00067Z" stroke="#0D121C" stroke-linecap="round" stroke-linejoin="round"/>
</g>
<defs>
<clipPath id="clip0_1_3175">
<rect width="16" height="16" fill="white"/>
</clipPath>
</defs>
</svg>
