<svg width="21" height="20" viewBox="0 0 21 20" fill="none" xmlns="http://www.w3.org/2000/svg">
<path d="M9.04861 7.70833C8.68084 7.21338 8.2107 6.80351 7.67024 6.50665C7.12977 6.20979 6.53166 6.03291 5.91667 5.98805H1.90625" stroke="#0D121C" stroke-linecap="round" stroke-linejoin="round"/>
<path d="M19.0937 5.98805H15.0833C12.2187 5.98805 10.5 9.99847 10.5 9.99847C10.5 9.99847 8.78125 14.0089 5.91667 14.0089H1.90625" stroke="#0D121C" stroke-linecap="round" stroke-linejoin="round"/>
<path d="M11.9514 12.2917C12.3192 12.7863 12.7894 13.1958 13.3299 13.4921C13.8704 13.7885 14.4685 13.9648 15.0833 14.0089H19.0938" stroke="#0D121C" stroke-linecap="round" stroke-linejoin="round"/>
<path d="M16.8021 3.6964L19.0938 5.98806L16.8021 8.27973" stroke="#0D121C" stroke-linecap="round" stroke-linejoin="round"/>
<path d="M16.8021 11.7172L19.0938 14.0089L16.8021 16.3006" stroke="#0D121C" stroke-linecap="round" stroke-linejoin="round"/>
</svg>
