<svg width="20" height="20" viewBox="0 0 20 20" fill="none" xmlns="http://www.w3.org/2000/svg">
<path d="M11.6584 4.39153C11.4681 4.29638 11.2549 4.25612 11.043 4.27528C10.831 4.29444 10.6286 4.37226 10.4584 4.5L5.41669 7.70834H3.12502C2.82113 7.70834 2.52968 7.82906 2.31479 8.04394C2.09991 8.25883 1.97919 8.55028 1.97919 8.85417V11.1458C1.97919 11.4497 2.09991 11.7412 2.31479 11.9561C2.52968 12.1709 2.82113 12.2917 3.12502 12.2917H5.41669L10.4584 15.5C10.6286 15.6277 10.831 15.7054 11.043 15.7245C11.2549 15.7436 11.468 15.7034 11.6583 15.6082C11.8486 15.513 12.0087 15.3667 12.1206 15.1857C12.2324 15.0047 12.2917 14.7961 12.2917 14.5833V5.41667C12.2918 5.20384 12.2325 4.9952 12.1207 4.81414C12.0088 4.63307 11.8488 4.48674 11.6584 4.39153Z" stroke="#0D121C" stroke-linecap="round" stroke-linejoin="round"/>
<path d="M17.2287 12.8646C17.7455 12.0545 18.0201 11.1137 18.0201 10.1528C18.0201 9.1919 17.7455 8.25103 17.2287 7.44098" stroke="#0D121C" stroke-linecap="round" stroke-linejoin="round"/>
<path d="M15.0126 11.8647C15.399 11.3891 15.6099 10.795 15.6099 10.1822C15.6099 9.56942 15.399 8.97533 15.0126 8.49973" stroke="#0D121C" stroke-linecap="round" stroke-linejoin="round"/>
<path d="M5.41669 7.70834V12.2917" stroke="#0D121C" stroke-linecap="round" stroke-linejoin="round"/>
</svg>
