<svg width="16" height="16" viewBox="0 0 16 16" fill="none" xmlns="http://www.w3.org/2000/svg">
<g clip-path="url(#clip0_601_42467)">
<path fill-rule="evenodd" clip-rule="evenodd" d="M7.712 0.00377765C7.40201 0.0175824 7.16635 0.0379856 6.8992 0.0741456C5.80526 0.222222 4.72406 0.613378 3.7728 1.20523C3.01813 1.67477 2.32981 2.28561 1.75938 2.99202C1.17445 3.71637 0.709935 4.56731 0.409673 5.46452C0.208463 6.06575 0.0838041 6.6688 0.0291033 7.30562C0.00734967 7.55884 0.00338166 7.66572 0.00332406 8.00002C0.00325366 8.38037 0.0127513 8.56893 0.0482713 8.89282C0.177001 10.0665 0.57558 11.2152 1.20521 12.2272C1.74265 13.091 2.46387 13.8659 3.296 14.4736C3.94174 14.9452 4.68887 15.33 5.4624 15.5895C6.06349 15.7911 6.66768 15.9161 7.3056 15.9709C7.55973 15.9928 7.6654 15.9967 8 15.9967C8.38084 15.9967 8.56999 15.9872 8.8928 15.9518C10.0665 15.823 11.2152 15.4244 12.2272 14.7948C12.6163 14.5527 12.9777 14.2807 13.3504 13.9495C13.462 13.8502 13.8502 13.4621 13.9495 13.3504C14.4615 12.7744 14.8403 12.2162 15.1679 11.5552C15.6134 10.6564 15.8774 9.72453 15.9682 8.73019C15.9801 8.59994 15.9936 8.37607 15.9936 8.30882C15.9936 8.26937 15.9962 8.24322 16 8.24322C16.0042 8.24322 16.0064 8.15669 16.0064 7.99644C16.0064 7.83356 16.0042 7.75101 16 7.75362C15.9959 7.75616 15.9936 7.73395 15.9936 7.6916C15.9935 7.58341 15.9741 7.31183 15.9517 7.10722C15.8235 5.93504 15.4244 4.78472 14.7948 3.77282C14.5051 3.30723 14.1701 2.87662 13.7864 2.47682C13.1181 1.78028 12.3994 1.25051 11.5552 0.832085C10.59 0.353659 9.61831 0.0923536 8.51875 0.0155024C8.39086 0.00656805 7.83184 -0.00155995 7.712 0.00377765ZM7.856 1.00252C6.50393 1.03076 5.20476 1.44169 4.08983 2.19379C3.03045 2.90842 2.17211 3.91645 1.64448 5.06562C1.26707 5.8876 1.06201 6.71503 1.01082 7.62242C1.00133 7.79074 1.00135 8.20831 1.01086 8.37762C1.06176 9.28376 1.26716 10.1126 1.64448 10.9344C2.13101 11.9941 2.89428 12.9291 3.85303 13.6399C4.42259 14.0621 5.09904 14.4122 5.79303 14.6437C6.38266 14.8404 6.97771 14.9527 7.6256 14.9893C7.79036 14.9986 8.20965 14.9986 8.3744 14.9893C9.35779 14.9337 10.243 14.7003 11.12 14.2655C11.804 13.9263 12.3947 13.5004 12.9475 12.9475C13.5003 12.3947 13.9263 11.804 14.2655 11.12C14.7003 10.243 14.9337 9.35781 14.9893 8.37442C14.9986 8.20967 14.9986 7.79038 14.9893 7.62562C14.9337 6.64223 14.7003 5.75704 14.2655 4.88002C13.8477 4.03742 13.2688 3.2983 12.5312 2.66554C11.382 1.67979 9.8856 1.08441 8.3744 1.01172C8.22007 1.0043 7.97736 0.999989 7.856 1.00252ZM7.8976 3.50448C7.8888 3.50601 7.86 3.51045 7.8336 3.51435C7.55236 3.5559 7.2749 3.74494 7.12076 4.00002C7.1048 4.02642 6.88791 4.48787 6.63878 5.02545L6.18581 6.00289L5.26411 6.00488C4.34826 6.00686 4.34202 6.00696 4.28303 6.02058C4.11698 6.05893 3.96762 6.13414 3.83545 6.24597C3.67845 6.37882 3.55813 6.58982 3.51401 6.80968C3.50155 6.87176 3.49593 6.98939 3.50185 7.06442C3.51723 7.25984 3.58351 7.43586 3.69983 7.59022C3.72501 7.62364 4.00927 7.90833 4.51919 8.41084C5.03292 8.9171 5.29905 9.18367 5.29722 9.19016C5.29569 9.19558 5.10803 9.6277 4.88018 10.1504C4.65234 10.6731 4.45756 11.1258 4.44734 11.1562C4.40865 11.2716 4.40076 11.3249 4.40062 11.472C4.40048 11.6223 4.4092 11.6798 4.45132 11.8062C4.55418 12.1149 4.81059 12.3622 5.1264 12.4575C5.22622 12.4875 5.29383 12.496 5.4304 12.4957C5.53699 12.4954 5.56918 12.493 5.62282 12.4814C5.7084 12.4629 5.77646 12.4403 5.8464 12.4071C5.87808 12.3921 6.37488 12.1151 6.9504 11.7916C7.52592 11.4682 8.00256 11.2035 8.0096 11.2035C8.01664 11.2034 8.48896 11.4658 9.0592 11.7865C9.62944 12.1072 10.1219 12.3826 10.1536 12.3985C10.3532 12.4985 10.6005 12.5254 10.832 12.4724C11.1702 12.3948 11.4602 12.1315 11.567 11.8048C11.6004 11.7026 11.6221 11.5753 11.6223 11.4803C11.6225 11.3676 11.5942 11.2155 11.5534 11.1102C11.5433 11.0839 11.3518 10.6419 11.128 10.128C10.9042 9.6141 10.7201 9.19048 10.7189 9.18663C10.7178 9.18279 11.0581 8.84363 11.4752 8.43295C11.8923 8.02227 12.2515 7.6658 12.2733 7.64079C12.4703 7.41527 12.5562 7.10063 12.4998 6.81134C12.4391 6.50044 12.2448 6.24435 11.9622 6.1028C11.8928 6.06801 11.8294 6.04503 11.744 6.02366L11.6768 6.00685L10.752 6.00482L9.8272 6.00279L9.38627 5.051C9.14375 4.52752 8.93125 4.0733 8.91403 4.04162C8.76698 3.77109 8.51515 3.58432 8.2098 3.51935C8.16688 3.51022 8.11755 3.50602 8.032 3.50421C7.96688 3.50283 7.9064 3.50295 7.8976 3.50448ZM7.98862 4.51042C7.98157 4.51658 7.75054 5.00834 7.47522 5.60322C7.1999 6.1981 6.96322 6.70642 6.94926 6.73282C6.88325 6.85766 6.7752 6.94463 6.6336 6.98691C6.59758 6.99767 6.53091 6.99857 5.55756 7.00159L4.51992 7.00482L5.34195 7.81442C6.30841 8.76626 6.29373 8.75144 6.32835 8.80985C6.40237 8.93475 6.41865 9.09026 6.37194 9.22621C6.36358 9.25052 6.14573 9.75426 5.88782 10.3456C5.62992 10.937 5.41363 11.4344 5.4072 11.4509C5.39677 11.4777 5.39655 11.482 5.40514 11.4906C5.41049 11.496 5.41966 11.4985 5.42579 11.4963C5.43185 11.4941 5.9624 11.1972 6.6048 10.8364C7.2472 10.4756 7.78746 10.1737 7.80538 10.1654C7.92558 10.11 8.09299 10.11 8.21408 10.1655C8.23214 10.1737 8.76664 10.4728 9.40186 10.8301C10.0371 11.1874 10.5665 11.4847 10.5784 11.4909C10.5991 11.5015 10.6006 11.5015 10.6116 11.4902C10.6228 11.4788 10.6069 11.4411 10.1435 10.3776C9.87967 9.77218 9.65706 9.2581 9.64879 9.23522C9.59695 9.09177 9.61507 8.92464 9.69631 8.79682C9.71902 8.76109 9.75742 8.71758 9.82339 8.65282C9.87538 8.60178 10.2729 8.2101 10.7069 7.78242L11.4958 7.00482L10.4567 7.00159C9.48195 6.99857 9.41522 6.99767 9.3792 6.98691C9.28033 6.95739 9.1764 6.89136 9.12318 6.82425C9.10703 6.80389 9.08133 6.76418 9.06607 6.73602C9.05081 6.70786 8.81291 6.1981 8.5374 5.60322C8.2619 5.00834 8.03084 4.51658 8.02394 4.51042C8.01703 4.50426 8.00914 4.49922 8.0064 4.49922C8.00366 4.49922 7.99566 4.50426 7.98862 4.51042ZM0.00291446 8.00322C0.00291446 8.1405 0.00375926 8.19575 0.00479606 8.126C0.00583286 8.05624 0.00582646 7.94392 0.00478966 7.8764C0.00375926 7.80887 0.00290806 7.86594 0.00291446 8.00322Z" fill="#0D121C"/>
</g>
<defs>
<clipPath id="clip0_601_42467">
<rect width="16" height="16" fill="white"/>
</clipPath>
</defs>
</svg>
