<svg width="16" height="16" viewBox="0 0 16 16" fill="none" xmlns="http://www.w3.org/2000/svg">
<path fill-rule="evenodd" clip-rule="evenodd" d="M7.7472 0.0194907C6.80221 0.0540891 5.88345 0.287977 5.0208 0.713545C4.10225 1.16668 3.2779 1.85054 2.64843 2.68157C1.89753 3.67292 1.43304 4.8709 1.32211 6.10237C1.2996 6.35225 1.29636 6.43046 1.29632 6.72637C1.29626 7.09847 1.30985 7.314 1.35403 7.64153C1.50018 8.72508 1.92563 9.78549 2.56731 10.6656C2.70777 10.8582 2.8757 11.0652 3.01979 11.2234C3.15023 11.3666 3.25613 11.4179 3.42153 11.418C3.54047 11.4182 3.63097 11.3878 3.72411 11.3166C3.86596 11.2081 3.93884 11.0349 3.91691 10.8584C3.90287 10.7455 3.86486 10.6685 3.76951 10.5599C3.52111 10.2769 3.36945 10.0797 3.20779 9.82924C2.63911 8.94834 2.3251 7.93564 2.29826 6.89597C2.27087 5.8345 2.51421 4.84405 3.02851 3.9238C3.40895 3.24306 3.96253 2.61694 4.61043 2.13458C5.19523 1.6992 5.87519 1.37654 6.5984 1.19125C7.21096 1.0343 7.8879 0.981456 8.5312 1.04036C9.6823 1.14578 10.7651 1.59351 11.6522 2.33095C12.1057 2.70795 12.5267 3.18484 12.831 3.66626C13.5393 4.78681 13.8371 6.11249 13.6765 7.43037C13.5974 8.07893 13.3996 8.72657 13.1007 9.31517C12.8777 9.75412 12.6322 10.1152 12.2913 10.5056C12.1788 10.6343 12.152 10.672 12.1274 10.7356C12.1002 10.8059 12.0939 10.8505 12.0977 10.9456C12.1014 11.0392 12.1119 11.0805 12.1512 11.1556C12.2146 11.2769 12.3503 11.3814 12.4794 11.4083C12.5706 11.4273 12.6911 11.4193 12.7708 11.389C12.8595 11.3552 12.9154 11.3114 13.0212 11.1924C13.5871 10.5562 14.0119 9.84986 14.304 9.05917C14.5332 8.43873 14.6588 7.84766 14.7085 7.15517C14.721 6.98115 14.719 6.44437 14.7051 6.26557C14.6708 5.82174 14.6158 5.47485 14.5178 5.08477C14.3201 4.29763 13.9596 3.51293 13.4955 2.85934C12.8537 1.95533 12.0119 1.22851 11.0368 0.736291C10.0123 0.219171 8.90192 -0.0227877 7.7472 0.0194907ZM7.7024 2.30466C7.07425 2.3477 6.44772 2.53284 5.9008 2.83703C5.09545 3.28496 4.45511 3.97233 4.0692 4.80317C3.85316 5.26827 3.72987 5.7371 3.67872 6.28797C3.66598 6.42521 3.66801 6.87288 3.68201 7.01117C3.73967 7.58097 3.87289 8.05484 4.112 8.54077C4.22831 8.77713 4.34128 8.96396 4.40668 9.02813C4.54091 9.15982 4.75474 9.20279 4.93334 9.13395C5.02599 9.09824 5.13527 9.00733 5.18321 8.92609C5.23229 8.84292 5.25799 8.73586 5.25259 8.63703C5.24703 8.5354 5.22619 8.48001 5.13946 8.33641C4.92068 7.97415 4.77 7.55366 4.7047 7.12317C4.66999 6.89435 4.65872 6.58031 4.67759 6.36797C4.72939 5.78514 4.90877 5.26406 5.22013 4.79203C5.64588 4.14656 6.29511 3.66196 7.0304 3.44081C7.36775 3.33934 7.64092 3.29954 8 3.29954C8.21054 3.29954 8.338 3.30843 8.5056 3.33479C9.09962 3.42821 9.64539 3.67064 10.1024 4.04406C10.6583 4.4983 11.0485 5.10665 11.2255 5.79517C11.2989 6.08097 11.3307 6.33667 11.3303 6.63997C11.3298 7.08856 11.2449 7.50755 11.0704 7.92317C11.0221 8.0383 10.9226 8.23437 10.8615 8.33521C10.774 8.47943 10.753 8.53497 10.7474 8.63703C10.742 8.73586 10.7677 8.84292 10.8168 8.92609C10.8647 9.00733 10.974 9.09824 11.0667 9.13395C11.1469 9.1649 11.2571 9.17493 11.3396 9.15881C11.466 9.13407 11.5862 9.05727 11.6538 8.958C11.74 8.8313 11.9044 8.52162 11.9823 8.33917C12.164 7.91351 12.2685 7.49997 12.318 7.01117C12.3321 6.8719 12.334 6.42458 12.3211 6.28797C12.2687 5.73182 12.1468 5.26837 11.9308 4.80317C11.5456 3.97365 10.9035 3.28439 10.0992 2.83703C9.54598 2.52933 8.92464 2.34706 8.28269 2.30413C8.16973 2.29658 7.8156 2.2969 7.7024 2.30466ZM7.8816 4.56338C6.92694 4.61272 6.11268 5.30903 5.91351 6.24637C5.87839 6.41164 5.87243 6.47543 5.8722 6.68797C5.87198 6.89894 5.87661 6.95395 5.90772 7.11037C6.05253 7.83827 6.5669 8.43974 7.264 8.69632C7.37546 8.73735 7.46782 8.76307 7.5872 8.78635C7.74673 8.81745 7.80308 8.82237 8 8.82237C8.19657 8.82237 8.25383 8.8174 8.41075 8.78667C8.59789 8.75003 8.75209 8.69853 8.9248 8.61498C9.15318 8.5045 9.33267 8.37692 9.51051 8.19868C9.79781 7.91073 9.99352 7.55479 10.0828 7.15775C10.1198 6.99331 10.1272 6.9177 10.1276 6.70077C10.1281 6.45714 10.1159 6.35214 10.064 6.15357C9.84634 5.31934 9.14783 4.69927 8.29017 4.57888C8.23316 4.57088 7.99719 4.55497 7.9776 4.55781C7.97408 4.55833 7.93088 4.56083 7.8816 4.56338ZM7.904 5.56513C7.8952 5.56662 7.86352 5.57101 7.8336 5.5749C7.5109 5.61678 7.20743 5.81954 7.02859 6.11274C6.95792 6.22862 6.90256 6.38377 6.8793 6.53117C6.86866 6.59857 6.86867 6.78574 6.87931 6.85437C6.91773 7.10226 7.02865 7.32227 7.20107 7.49257C7.37901 7.66832 7.57902 7.76997 7.8304 7.81241C7.90733 7.8254 8.09266 7.8254 8.1696 7.81241C8.41299 7.77132 8.61049 7.67305 8.78308 7.50717C8.96821 7.32922 9.08413 7.10405 9.12077 6.85117C9.13149 6.77723 9.1314 6.60448 9.12063 6.53437C9.08213 6.28406 8.97451 6.0695 8.79981 5.89481C8.63024 5.72523 8.42158 5.61705 8.18662 5.57689C8.13316 5.56775 7.93678 5.55958 7.904 5.56513ZM7.0208 9.11796C6.95376 9.12297 6.8073 9.14675 6.736 9.16421C6.4906 9.22427 6.26578 9.3314 6.0576 9.48749C5.96829 9.55445 5.80338 9.71561 5.73295 9.80477C5.45539 10.1561 5.31078 10.6064 5.33729 11.0368C5.34555 11.1707 5.70485 14.3758 5.72436 14.4896C5.78821 14.8617 5.96413 15.2002 6.23335 15.4688C6.51704 15.7519 6.86976 15.9293 7.26397 15.9872C7.3457 15.9992 7.38573 15.9999 8.00041 15.9999C8.7436 16 8.73717 16.0003 8.94962 15.945C9.55241 15.7881 10.0489 15.3098 10.2298 14.7117C10.2544 14.6304 10.2806 14.5159 10.2909 14.4448C10.2947 14.4184 10.3715 13.6609 10.4617 12.7616C10.605 11.331 10.6259 11.1085 10.6287 10.9839C10.633 10.795 10.6189 10.6638 10.5762 10.4966C10.4933 10.1713 10.3335 9.89123 10.0933 9.65049C9.78824 9.34476 9.3948 9.1601 8.9632 9.1201C8.89927 9.11418 7.09796 9.11219 7.0208 9.11796ZM7.09284 10.1189C6.7254 10.1525 6.4312 10.4166 6.35159 10.7845C6.34595 10.8106 6.33988 10.868 6.3381 10.912C6.33511 10.9862 6.34812 11.1101 6.51776 12.624C6.61835 13.5216 6.70504 14.2825 6.7104 14.3148C6.73914 14.4883 6.8253 14.6484 6.95775 14.7746C7.05023 14.8627 7.14977 14.9231 7.26787 14.9627C7.3898 15.0035 7.38395 15.0031 7.9424 15.0062C8.47428 15.0091 8.56725 15.0061 8.66711 14.9828C8.76631 14.9596 8.87417 14.9117 8.9536 14.8554C9.01206 14.814 9.10261 14.7256 9.14559 14.668C9.21597 14.5736 9.2755 14.4357 9.29487 14.3222C9.29988 14.2928 9.37841 13.5226 9.46939 12.6107L9.63481 10.9526L9.62713 10.8763C9.60923 10.698 9.54801 10.5498 9.43608 10.4137C9.39192 10.36 9.31974 10.2945 9.2608 10.2547C9.21537 10.224 9.11804 10.1772 9.05713 10.1568C8.9298 10.1141 8.98272 10.1163 8.0224 10.1148C7.54368 10.1141 7.12537 10.1159 7.09284 10.1189Z" fill="#0D121C"/>
</svg>
