<svg width="16" height="16" viewBox="0 0 16 16" fill="none" xmlns="http://www.w3.org/2000/svg">
<g clip-path="url(#clip0_601_3750)">
<path fill-rule="evenodd" clip-rule="evenodd" d="M5.5808 0.198923C5.02195 0.246322 4.51771 0.419237 4.0608 0.720165C3.38193 1.16728 2.89414 1.85769 2.70129 2.64443C2.63893 2.89878 2.6112 3.13583 2.6112 3.4144C2.6112 3.83832 2.68013 4.20438 2.83353 4.5952C3.21696 5.57207 4.06829 6.30932 5.0912 6.55032C5.60818 6.67213 6.18735 6.66136 6.688 6.52063C7.22716 6.36908 7.69542 6.09842 8.09178 5.70926C8.57143 5.23829 8.89203 4.62841 9.00712 3.968C9.0892 3.497 9.06305 2.98552 8.93386 2.53465C8.78024 1.99856 8.50445 1.52918 8.112 1.13592C7.56359 0.586379 6.85107 0.258706 6.07392 0.198655C5.97565 0.191064 5.67153 0.191224 5.5808 0.198923ZM5.6992 1.19417C5.68512 1.19555 5.64192 1.1997 5.6032 1.2034C5.21479 1.24038 4.81386 1.39766 4.49744 1.63716C4.13622 1.91055 3.86824 2.28185 3.72746 2.70401C3.67428 2.86349 3.65045 2.96692 3.62756 3.13754C3.6089 3.27668 3.60745 3.52873 3.62452 3.6672C3.68641 4.16925 3.89432 4.60459 4.24306 4.96239C4.62012 5.34925 5.09916 5.57611 5.6448 5.62624C5.73596 5.63462 6.02307 5.63028 6.0992 5.61938C6.37679 5.57963 6.60629 5.50997 6.83159 5.39707C7.24799 5.18841 7.60617 4.83096 7.81416 4.41647C7.91041 4.22469 7.98291 4.00762 8.01882 3.80379C8.04472 3.65672 8.04783 3.61501 8.04792 3.4144C8.048 3.21299 8.04512 3.17437 8.01854 3.0208C7.95754 2.6683 7.79647 2.31292 7.56749 2.0256C7.49548 1.93525 7.30667 1.74669 7.216 1.67458C6.89261 1.41738 6.51442 1.25967 6.0928 1.2062C6.01752 1.19665 5.75528 1.18863 5.6992 1.19417ZM14.1056 7.20324C14.0196 7.2138 13.9453 7.22802 13.8688 7.24857C13.8354 7.25755 13.1298 7.45327 12.3008 7.68351C11.333 7.95229 10.768 8.11221 10.722 8.13031C10.4066 8.25443 10.1431 8.48977 9.97653 8.79616C9.90305 8.9313 9.84612 9.09216 9.81777 9.2448C9.79195 9.38373 9.79212 9.37328 9.79206 10.9528C9.792 12.3936 9.79144 12.4685 9.7808 12.4652C9.77464 12.4632 9.73441 12.447 9.69139 12.4291C9.55846 12.3739 9.39188 12.3317 9.232 12.313C9.13277 12.3013 8.91794 12.303 8.8192 12.3162C8.55688 12.3513 8.31643 12.4374 8.10343 12.5725C7.3431 13.0545 7.06952 14.0238 7.46567 14.832C7.54593 14.9958 7.64582 15.1376 7.77591 15.2726C8.0609 15.5682 8.42867 15.7507 8.83542 15.7983C8.93063 15.8094 9.11998 15.811 9.21692 15.8015C9.61315 15.7625 9.994 15.5814 10.2789 15.2965C10.526 15.0494 10.6985 14.7244 10.7615 14.3872C10.7917 14.2253 10.7906 14.3248 10.7905 11.8496C10.7905 10.2922 10.7926 9.50749 10.797 9.469C10.8052 9.39794 10.8176 9.35378 10.8457 9.296C10.8925 9.1994 10.9675 9.12175 11.056 9.07819C11.1225 9.04544 14.14 8.20809 14.226 8.1985C14.3006 8.19018 14.3668 8.1979 14.4385 8.22329C14.5128 8.24959 14.5561 8.27807 14.6246 8.3456C14.6938 8.41393 14.7257 8.4645 14.7518 8.54712L14.768 8.5984L14.7697 9.78103L14.7714 10.9637L14.7521 10.9537C14.7143 10.9341 14.5763 10.8853 14.4992 10.8641C14.2162 10.7866 13.8886 10.7841 13.604 10.8574C13.103 10.9864 12.6894 11.3231 12.4639 11.7856C12.3306 12.0591 12.2739 12.3393 12.2889 12.6512C12.3269 13.4443 12.9079 14.1183 13.6888 14.2751C13.8216 14.3018 13.8784 14.3069 14.0416 14.3068C14.158 14.3067 14.2182 14.3038 14.2752 14.2954C14.6395 14.2416 14.9523 14.095 15.2224 13.8512C15.4542 13.642 15.6365 13.3482 15.7243 13.0424C15.7778 12.8559 15.801 12.6451 15.7874 12.4672C15.7833 12.4129 15.7792 11.674 15.7763 10.4768C15.7715 8.4542 15.773 8.54186 15.7402 8.3776C15.636 7.85586 15.219 7.40531 14.7008 7.25467C14.6026 7.22612 14.5134 7.20794 14.4329 7.20008C14.345 7.19149 14.189 7.193 14.1056 7.20324ZM5.648 7.33231C5.5433 7.33533 5.36824 7.34751 5.2416 7.36057C3.69185 7.5204 2.23607 8.33255 1.24458 9.5904C0.804455 10.1488 0.479252 10.7556 0.260122 11.4274C0.200801 11.6093 0.194004 11.6792 0.224487 11.7938C0.304826 12.096 0.639226 12.2516 0.921031 12.1181C1.03732 12.063 1.1213 11.9776 1.16655 11.8685C1.17523 11.8475 1.19605 11.7886 1.21283 11.7376C1.42342 11.0967 1.72744 10.5597 2.17845 10.032C2.27606 9.91778 2.56815 9.62568 2.6848 9.52564C3.41483 8.89949 4.25553 8.51111 5.168 8.37846C5.52897 8.32598 5.9448 8.31761 6.3104 8.35546C6.89144 8.41562 7.42938 8.57567 7.9872 8.85435C8.05936 8.8904 8.13522 8.92476 8.15578 8.9307C8.34653 8.9858 8.56337 8.91788 8.6825 8.7657C8.75531 8.67271 8.79363 8.56437 8.79356 8.45178C8.79343 8.28102 8.71395 8.12856 8.57675 8.03589C8.50262 7.98582 8.18754 7.83483 7.9872 7.75337C7.23825 7.44882 6.46042 7.30881 5.648 7.33231ZM13.9687 11.8083C13.7879 11.8247 13.619 11.9074 13.4912 12.0422C13.3933 12.1454 13.3327 12.2627 13.3013 12.4096C13.2853 12.4844 13.2853 12.6294 13.3013 12.7037C13.3581 12.9676 13.5312 13.1693 13.7818 13.2635C13.9336 13.3207 14.1428 13.3208 14.2937 13.264C14.4698 13.1978 14.6149 13.0731 14.6998 12.9152C14.7541 12.8143 14.7874 12.6948 14.7775 12.6368C14.7744 12.6192 14.7718 12.5533 14.7716 12.4904C14.7712 12.3796 14.7706 12.374 14.7513 12.3176C14.6831 12.1172 14.5366 11.9563 14.3439 11.8698C14.2801 11.8412 14.1922 11.8169 14.1331 11.8116C14.0458 11.8037 14.0245 11.8032 13.9687 11.8083ZM8.9056 13.3158C8.80465 13.3348 8.70271 13.3768 8.60898 13.4382C8.55754 13.4719 8.44984 13.5819 8.41304 13.6383C8.32245 13.7771 8.28289 13.9218 8.28992 14.0886C8.29427 14.1917 8.30612 14.2482 8.34214 14.3376C8.49319 14.7123 8.90627 14.8978 9.29224 14.7642C9.49538 14.6939 9.66669 14.525 9.74272 14.32C9.84356 14.0482 9.77916 13.7388 9.5793 13.5349C9.47504 13.4285 9.35655 13.3611 9.2096 13.3245C9.13701 13.3064 8.97963 13.3019 8.9056 13.3158Z" fill="#0D121C"/>
</g>
<defs>
<clipPath id="clip0_601_3750">
<rect width="16" height="16" fill="white"/>
</clipPath>
</defs>
</svg>
